<svg xmlns="http://www.w3.org/2000/svg" viewBox="0 0 500 500"><path d="M82.73 125.62c27.92-59.45 127.06-51.06 165.32-9.25s50.7 68.59 85.21 53 78.52-11.44 81 38.16-37.87 108.25-102.05 125.6-64.16 78.76-149.1 66.37c-46.31-6.76-47.36-56.86-40.82-98.31S50.35 194.56 82.73 125.62Z" style="fill:#407bff"/><path d="M82.73 125.62c27.92-59.45 127.06-51.06 165.32-9.25s50.7 68.59 85.21 53 78.52-11.44 81 38.16-37.87 108.25-102.05 125.6-64.16 78.76-149.1 66.37c-46.31-6.76-47.36-56.86-40.82-98.31S50.35 194.56 82.73 125.62Z" style="fill:#fff;opacity:.9"/><ellipse cx="250" cy="416.24" rx="193.89" ry="11.32" style="fill:#f5f5f5"/><path transform="rotate(180 123.835 411.3)" style="fill:#263238" d="M78.66 405.53H169v11.54H78.66z"/><path transform="rotate(180 106.48 411.3)" style="fill:#fff;isolation:isolate;opacity:.2" d="M78.67 405.53h55.63v11.54H78.67z"/><path style="fill:#407bff" d="M77.2 326.98h93.82v85.19H77.2z"/><path style="fill:#fff;isolation:isolate;opacity:.4" d="M77.2 326.98h93.82v85.19H77.2z"/><path style="isolation:isolate;opacity:.2" d="M136.5 326.98h34.52v85.19H136.5z"/><path d="M74.42 327a3.08 3.08 0 0 0 .91 2.2 3 3 0 0 0 2.19.91h93.17a3.11 3.11 0 1 0 0-6.21H77.52a3.1 3.1 0 0 0-3.1 3.1Z" style="fill:#407bff"/><path d="M74.42 327a3.08 3.08 0 0 0 .91 2.2 3 3 0 0 0 2.19.91h58.86a3.11 3.11 0 1 0 0-6.21H77.52a3.1 3.1 0 0 0-3.1 3.1Z" style="fill:#fff;isolation:isolate;opacity:.2"/><path transform="rotate(180 106.54 343.05)" style="fill:#fff;isolation:isolate;opacity:.30000000000000004" d="M81.5 334.52h50.07v17.06H81.5z"/><path transform="rotate(180 106.54 380.925)" style="fill:#fff;isolation:isolate;opacity:.30000000000000004" d="M81.5 354.96h50.07v51.92H81.5z"/><path d="M104.93 338.33a1.61 1.61 0 1 0 1.61-1.61 1.61 1.61 0 0 0-1.61 1.61ZM104.93 360.37a1.61 1.61 0 1 0 1.61-1.61 1.61 1.61 0 0 0-1.61 1.61Z" style="isolation:isolate;opacity:.2"/><path transform="rotate(180 98.8 321.26)" style="fill:#407bff" d="M89.01 318.95h19.58v4.62H89.01z"/><path transform="rotate(180 98.8 321.26)" style="fill:#fff;isolation:isolate;opacity:.7000000000000001" d="M89.01 318.95h19.58v4.62H89.01z"/><path d="M88 324h15.34a2.73 2.73 0 0 0 0-5.46H88v1h15.34a1.73 1.73 0 0 1 0 3.46H88Z" style="fill:#263238"/><path d="M101 324h15.33a2.73 2.73 0 1 0 0-5.46H101v1h2.33a1.73 1.73 0 0 1 0 3.46H101Z" style="fill:#263238"/><g style="isolation:isolate;opacity:.4"><path d="M88 324h15.34a2.73 2.73 0 0 0 0-5.46H88v1h15.34a1.73 1.73 0 0 1 0 3.46H88Z" style="fill:#fff"/></g><path transform="rotate(180 101.33 315.795)" style="fill:#407bff" d="M91.54 313.49h19.58v4.62H91.54z"/><path transform="rotate(180 101.33 315.795)" style="fill:#fff;isolation:isolate;opacity:.7000000000000001" d="M91.54 313.49h19.58v4.62H91.54z"/><path d="M103.55 318.53h15.34a2.74 2.74 0 0 0 0-5.47h-15.34v1h2.33a1.74 1.74 0 0 1 0 3.47h-2.33Z" style="fill:#407bff"/><g style="isolation:isolate;opacity:.4"><path d="M103.55 318.53h15.34a2.74 2.74 0 0 0 0-5.47h-15.34v1h2.33a1.74 1.74 0 0 1 0 3.47h-2.33Z" style="fill:#fff"/></g><path d="M90.54 318.53h15.34a2.74 2.74 0 0 0 0-5.47H90.54v1h15.34a1.74 1.74 0 0 1 0 3.47H90.54Z" style="fill:#407bff"/><g style="isolation:isolate;opacity:.2"><path d="M90.54 318.53h15.34a2.74 2.74 0 0 0 0-5.47H90.54v1h15.34a1.74 1.74 0 0 1 0 3.47H90.54Z" style="fill:#fff"/></g><path transform="rotate(180 97.31 310.33)" style="fill:#407bff" d="M87.52 308.02h19.58v4.62H87.52z"/><path transform="rotate(180 97.31 310.33)" style="fill:#fff;isolation:isolate;opacity:.7000000000000001" d="M87.52 308.02h19.58v4.62H87.52z"/><path d="M99.53 313.06h15.33a2.73 2.73 0 1 0 0-5.46H99.53v1h2.33a1.73 1.73 0 1 1 0 3.46h-2.33Z" style="fill:#263238"/><g style="opacity:.2"><path d="M99.53 313.06h15.33a2.73 2.73 0 1 0 0-5.46H99.53v1h2.33a1.73 1.73 0 1 1 0 3.46h-2.33Z" style="fill:#fff"/></g><path d="M86.52 313.06h15.33a2.73 2.73 0 1 0 0-5.46H86.52v1h15.33a1.73 1.73 0 1 1 0 3.46H86.52Z" style="fill:#263238"/><g style="isolation:isolate;opacity:.4"><path d="M86.52 313.06h15.33a2.73 2.73 0 1 0 0-5.46H86.52v1h15.33a1.73 1.73 0 1 1 0 3.46H86.52Z" style="fill:#fff"/></g><path style="fill:#407bff" d="M99.55 302.56h19.58v4.62H99.55z"/><path style="fill:#fff;isolation:isolate;opacity:.7000000000000001" d="M99.55 302.56h19.58v4.62H99.55z"/><path d="M120.13 307.6h-15.34a2.74 2.74 0 0 1 0-5.47h15.34v1h-15.34a1.74 1.74 0 0 0 0 3.47h15.34Z" style="fill:#407bff"/><path d="M107.12 307.6H91.78a2.74 2.74 0 0 1 0-5.47h15.34v1h-2.33a1.74 1.74 0 0 0 0 3.47h2.33Z" style="fill:#407bff"/><g style="isolation:isolate;opacity:.4"><path d="M120.13 307.6h-15.34a2.74 2.74 0 0 1 0-5.47h15.34v1h-15.34a1.74 1.74 0 0 0 0 3.47h15.34Z" style="fill:#fff"/></g><path d="M134.51 319c1.57.16 6.67-.13 8 0 .32 0 .59.09.88.14a8.5 8.5 0 0 1 1.4-.14h8c3.69 0 7.12 3.21 12.92 4l-.66.92h-43.43v-1.72c4.25.89 9.32-3.6 12.89-3.2Z" style="fill:#407bff"/><path d="M134.51 319c1.57.16 6.67-.13 8 0 .32 0 .59.09.88.14a8.5 8.5 0 0 1 1.4-.14h8c3.69 0 7.12 3.21 12.92 4l-.66.92h-43.43v-1.72c4.25.89 9.32-3.6 12.89-3.2Z" style="fill:#fff;opacity:.5"/><path d="M165.72 323c-5.8-.8-9.23-4-12.92-4a6.71 6.71 0 0 0-5.32 2.31 7 7 0 0 0-5-2.31c-3.56-.35-8.63 4.14-12.89 3.21v1.72h35.44Z" style="fill:#fff;isolation:isolate;opacity:.30000000000000004"/><path d="M147.48 321.26c-.58 0-.78 2-.78 2h1.59s-.23-2.01-.81-2Z" style="fill:#407bff"/><path transform="rotate(180 143.455 323.605)" style="fill:#263238" d="M121.19 323.22h44.53v.77h-44.53z"/><path transform="rotate(180 198.805 320.425)" style="fill:#263238" d="M196.43 226.59h4.75v187.66h-4.75z"/><path transform="rotate(180 198.805 320.425)" style="fill:#fff;isolation:isolate;opacity:.2" d="M196.43 226.59h4.75v187.66h-4.75z"/><path d="M192.08 402h13.45v8.66a4.79 4.79 0 0 1-4.79 4.79h-3.88a4.79 4.79 0 0 1-4.79-4.79V402Z" transform="rotate(180 198.805 408.755)" style="fill:#263238"/><path d="M180.88 208.07h35.86c.79 30.24 12 46.34 12 46.34h-59.87s11.22-16.1 12.01-46.34Z" style="fill:#407bff"/><path d="M192.08 402h13.45v8.66a4.79 4.79 0 0 1-4.79 4.79h-3.88a4.79 4.79 0 0 1-4.79-4.79V402Z" transform="rotate(180 198.805 408.755)" style="fill:#fff;isolation:isolate;opacity:.30000000000000004"/><path d="M179.29 411.44h39a5.63 5.63 0 0 1-5.63 5.63h-27.74a5.63 5.63 0 0 1-5.63-5.63Z" transform="rotate(180 198.805 414.255)" style="fill:#263238"/><path d="M179.29 411.44h39a5.63 5.63 0 0 1-5.63 5.63h-27.74a5.63 5.63 0 0 1-5.63-5.63Z" transform="rotate(180 198.805 414.255)" style="fill:#fff;isolation:isolate;opacity:.4"/><path d="M168.87 254.41h59.87s-3.63-5.21-6.91-15.28a109.53 109.53 0 0 1-5.1-31.06h-35.86a109.85 109.85 0 0 1-5.09 31.05c-3.28 10.07-6.91 15.29-6.91 15.29Z" style="fill:#fff;isolation:isolate;opacity:.5"/><path d="M175.78 239.12a28.56 28.56 0 0 0 46.05 0 109.53 109.53 0 0 1-5.1-31.06h-35.86a109.85 109.85 0 0 1-5.09 31.06Z" style="fill:#fff;isolation:isolate;opacity:.2"/><path d="M377.66 247.08H270.25a9.08 9.08 0 0 0-8.77 7.8L249 356.74h123l12.51-101.86a6.76 6.76 0 0 0-6.85-7.8Z" style="fill:#263238"/><path d="M377.66 247.08H270.25a9.08 9.08 0 0 0-8.77 7.8L249 356.74h123l12.51-101.86a6.76 6.76 0 0 0-6.85-7.8Z" style="fill:#fff;isolation:isolate;opacity:.6000000000000001"/><path d="M348.21 356.74H372l12.51-101.86a6.76 6.76 0 0 0-6.85-7.8h-8.17a9.08 9.08 0 0 0-8.77 7.8Z" style="isolation:isolate;opacity:.2"/><path style="fill:#263238" d="M365.11 416.66h-8.34l-3.41-37.06h14.3l-2.55 37.06zM328.51 416.66h-8.34l-3.4-37.06h14.29l-2.55 37.06zM266.39 416.66h-8.34l-3.4-37.06h14.29l-2.55 37.06zM229.79 416.66h-8.33l-3.41-37.06h14.29l-2.55 37.06z"/><path style="fill:#fff;isolation:isolate;opacity:.2" d="M328.51 416.66h-8.34l-3.4-37.06h14.29l-2.55 37.06zM229.79 416.66h-8.33l-3.41-37.06h14.29l-2.55 37.06z"/><path d="m371.23 378-.76 9.58a1.33 1.33 0 0 1-1.34 1.23H217.21a1.34 1.34 0 0 1-1.34-1.23l-.75-9.58Z" style="fill:#263238"/><path d="m335.05 378-.76 9.58a1.33 1.33 0 0 1-1.34 1.23H217.21a1.34 1.34 0 0 1-1.34-1.23l-.75-9.58Z" style="fill:#fff;isolation:isolate;opacity:.2"/><path d="M325 351.84h-56.93l-3.42-39a15 15 0 0 0-14.92-13.68h-50a6.3 6.3 0 0 0-6.28 6.85l.79 9a6.28 6.28 0 0 0 5.47 5.7l1.78.23a4.69 4.69 0 0 1 4.08 4.25l4.31 49.26a7 7 0 0 0 6.93 6.35H325Z" style="fill:#263238"/><path d="M325 351.84h-56.93l-3.42-39a15 15 0 0 0-14.92-13.68h-50a6.3 6.3 0 0 0-6.28 6.85l.79 9a6.28 6.28 0 0 0 5.47 5.7l1.78.23a4.69 4.69 0 0 1 4.08 4.25l4.31 49.26a7 7 0 0 0 6.93 6.35H325Z" style="fill:#fff;isolation:isolate;opacity:.6000000000000001"/><path d="M230 312.79a15 15 0 0 0-14.92-13.68h34.61a15 15 0 0 1 14.92 13.68l3.42 39h-34.57Z" style="isolation:isolate;opacity:.2"/><path d="M325 351.84h-91.54l-3.42-39a15 15 0 0 0-14.92-13.68h-15.37a6.3 6.3 0 0 0-6.28 6.85l.79 9a6.28 6.28 0 0 0 5.47 5.7l1.78.23a4.69 4.69 0 0 1 4.08 4.25l4.31 49.26a7 7 0 0 0 6.93 6.35H325Z" style="fill:#fff;isolation:isolate;opacity:.1"/><rect x="226.76" y="331.26" width="116.32" height="26.39" rx="5.02" transform="rotate(180 284.925 344.455)" style="fill:#263238"/><path d="M226.77 336.28v16.36a5 5 0 0 0 5 5h106.3a5 5 0 0 0 5-5v-16.36a5 5 0 0 0-5-5H231.79a5 5 0 0 0-5.02 5Z" style="fill:#fff;isolation:isolate;opacity:.5"/><path d="M226.77 336.28v16.36a5 5 0 0 0 1.84 3.88h79.28a5 5 0 0 0 5-5v-16.37a5 5 0 0 0-1.86-3.89h-79.24a5 5 0 0 0-5.02 5.02Z" style="fill:#fff;isolation:isolate;opacity:.1"/><path d="M297.1 265.81a157.85 157.85 0 0 1-11.1 12.05c-4.44 4.22-8.46 8.14-14.18 11.18a7.2 7.2 0 0 1-9.47-2.67c-2.56-4.38-2.42-9.55-2.5-14.16a103.15 103.15 0 0 1 1.6-16.34l5.63.36c.34 5.19.73 10.48 1.36 15.51a36.78 36.78 0 0 0 1.81 8.43c.16.37.35.65.38.62a2.52 2.52 0 0 0-1.7-1 3.1 3.1 0 0 0-1.81.15 27.06 27.06 0 0 0 2.79-2.13c6.64-5.82 12.55-12.73 18.46-19.3l8.7 7.34Z" style="fill:#ebc0bb"/><path d="m279.39 265.82 7.49 5.48 5.59 4.1.81-1 2.06-2.55 4-4.88-7.83-17c-2.71 1.8-8.57 10.46-11 14.15-.71 1.05-1.12 1.7-1.12 1.7Z" style="fill:#407bff"/><path d="m279.39 265.82 7.49 5.48 5.59 4.1.81-1-12.81-10.25c-.67 1.02-1.08 1.67-1.08 1.67Z" style="fill:#fff;opacity:.30000000000000004"/><path d="m286.88 271.3 5.59 4.1 2.87-3.55c-.67-5.66-1.37-11.44-1.37-11.44a32.05 32.05 0 0 0-7.09 10.89Z" style="opacity:.2"/><path d="m290.29 298.25 40.54 6.49s.65-6.23 1.28-14.78c.4-5.46.8-11.86 1-18.2.32-9.6.22-19.05-.91-24.79a90.67 90.67 0 0 0-24.32-1.06 52.61 52.61 0 0 0-16.43 4.1s1.83 19.76-1.16 48.24Z" style="fill:#407bff"/><path d="M272.72 263.77h-4.6a3.26 3.26 0 0 1-3-3.48v-10.07a3.26 3.26 0 0 1 3-3.48h4.6v1.78h-4.6c-.65 0-1.19.78-1.19 1.7v10.07c0 .92.54 1.7 1.19 1.7h4.6Z" style="fill:#263238"/><path d="m268.42 249.32-2.62-.08a2.38 2.38 0 0 0-2.27 1.48l-2.06 4.5a8 8 0 0 0 .12 6.28l.56 1.33c4.4.49 8.84-2.88 8.84-2.88l1.38-.77c1.23-.68 1.59-2.44.82-4l-1.78-3.67a3.63 3.63 0 0 0-2.99-2.19Z" style="fill:#eec1bb"/><rect x="268.13" y="245.58" width="13.53" height="19.04" rx=".91" transform="rotate(180 274.89 255.1)" style="fill:#263238"/><path d="M275.43 236.62c1.2.61 1 2.35.7 3.4s-.9 1.91-.7 3.09c-2-1.68.64-4.44 0-6.49ZM272.82 236.62c1.19.61 1 2.35.69 3.4s-.89 1.91-.69 3.09c-2-1.68.64-4.44 0-6.49ZM278.05 236.62c1.19.61 1 2.35.69 3.4s-.89 1.91-.69 3.09c-2-1.68.63-4.44 0-6.49Z" style="fill:#263238;isolation:isolate"/><path d="M275.43 236.62c1.2.61 1 2.35.7 3.4s-.9 1.91-.7 3.09c-2-1.68.64-4.44 0-6.49ZM272.82 236.62c1.19.61 1 2.35.69 3.4s-.89 1.91-.69 3.09c-2-1.68.64-4.44 0-6.49ZM278.05 236.62c1.19.61 1 2.35.69 3.4s-.89 1.91-.69 3.09c-2-1.68.63-4.44 0-6.49Z" style="fill:#fff;isolation:isolate;opacity:.7000000000000001"/><path d="m262.63 271.28 2.86-1.43 10 3.37 14-2.79 2.51 10.62s0 11.66-.67 11.75-15.77 0-15.77 0l-7.38-5.32Z" style="fill:#e0e0e0"/><path style="fill:#263238" d="m293.1 271.43 4.71 24.4-18.88 1.04-12.74-4.31-5.32-22.97 14.58 4.68 17.65-2.84z"/><path style="fill:#fff;isolation:isolate;opacity:.2" d="m275.45 274.27 3.48 22.6 18.88-1.03-4.71-24.41-17.65 2.84z"/><path style="fill:#fff;opacity:.1" d="m275.45 274.27 3.48 22.6-12.74-4.31-5.32-22.97 14.58 4.68z"/><path d="m288.13 288-7.65-2.54 1.18 10.14s7 .71 7.75-3Z" style="fill:#eec1bb"/><path style="fill:#eec1bb" d="m274.24 287.67 1.37 8.33 6.05-.4-1.18-10.15-6.24 2.22z"/><path d="M332.11 290c.4-5.46.8-11.86 1-18.2-3.61-6.66-7.08-12.26-7.08-12.26s-16.91 13.79 6.08 30.46Z" style="opacity:.2"/><path d="M336.41 267c-2.08 9.59-6.63 25.52-15.56 30.79a8.89 8.89 0 0 1-2.64.88 36.19 36.19 0 0 1-9.26-.27 168 168 0 0 1-23.83-5l1-5.56 15.8.87c4.17.23 11.45.52 14.1.07l-.32.17c.14-.13.43-.39.56-.54 2.23-2.63 3.52-5.93 4.82-9.34a136.72 136.72 0 0 0 4.21-14.35l11.12 2.28Z" style="fill:#ebc0bb"/><path d="m320.83 272.51 16.22 3.8.45-1.94c2.83-13 1.73-26-5.29-27.41 0 0-4.9 2.46-7.09 6.74-1.71 3.3-3.35 12.79-4 16.88-.18 1.19-.29 1.93-.29 1.93Z" style="fill:#407bff"/><ellipse cx="304.97" cy="272.24" rx="7.57" ry="9.53" style="fill:#fff;isolation:isolate;opacity:.2"/><path style="fill:#407bff" d="m314.59 273.99-17.47-7.76-1.07 4.03 17.87 7.87.67-4.14z"/><path style="fill:#fff;opacity:.30000000000000004" d="m314.59 273.99-17.47-7.76-1.07 4.03 17.87 7.87.67-4.14z"/><path style="fill:#fff;isolation:isolate;opacity:.2" d="m305.32 276.51-3.45-1.66v1.38l3.1 1.35.35-1.07z"/><path d="M313.51 268.11s-2.36-5.08-5.81-6.28-7.33 1.43-7.33 1.43l-.47-1.12s4.14-2.4 7.9-1.31 6.34 6.86 6.34 6.86ZM302.2 282c-2.35-.85-4.32-4.44-4.32-4.44l-.81.53a10.48 10.48 0 0 0 4.8 4.87c3.47 1.67 7.5-1 7.5-1l-.54-.7a7.58 7.58 0 0 1-6.63.74ZM320.83 272.51l16.22 3.8.45-1.94-16.39-3.79c-.17 1.19-.28 1.93-.28 1.93ZM306.38 255.58c8.23.64 16.5-8.68 16.5-8.68a8.43 8.43 0 0 0-1.26-1.21 84.29 84.29 0 0 0-13.73.21 35.52 35.52 0 0 0-5.33 2.83s-2.7 6.36 3.82 6.85Z" style="fill:#fff;opacity:.30000000000000004"/><path d="M315.73 226.73v3.62c.23 5.92 1.4 13.49 5.23 16.08a17.92 17.92 0 0 1-12.83 7.71c-5 .71-5.81-2.7-5-4.79a7.38 7.38 0 0 0 4.25-3.69c1-2.38.19-5.21-1-7.87Z" style="fill:#eec1bb"/><path d="M315.73 226.73a32.15 32.15 0 0 1 0 3.62c-.23 4.8-1.67 12.87-8.39 15.31 1-2.38.19-5.21-1-7.87Z" style="opacity:.2"/><path d="M300.51 218.41c3.39 1.44 2.71 5.15-3 11.88-3.46-3-5.28-9.87-3.44-12s3.48-1.12 6.44.12Z" style="fill:#263238"/><path d="M314.48 221.45c.83 5.43 1.6 9.17.81 12.57a11.52 11.52 0 0 1-1.52 3.6c-4.33 6.82-14 5.41-17.35-1.48-.1-.22-.2-.45-.29-.68-2.76-6.3-3.78-16.72 2.5-21a10.17 10.17 0 0 1 15.85 7Z" style="fill:#eec1bb"/><path d="M304 225.78c.12.6-.09 1.15-.48 1.23s-.79-.33-.92-.92.08-1.14.46-1.23.81.35.94.92ZM297.3 227.24c.13.6-.09 1.15-.47 1.23s-.81-.33-.94-.93.08-1.14.47-1.22.81.33.94.92Z" style="fill:#263238"/><path d="M299.56 227.05a21.74 21.74 0 0 1-1.75 5.68 3.52 3.52 0 0 0 3-.08Z" style="fill:#ed847e"/><path d="M305.42 223.26a.31.31 0 0 0 .21-.09.36.36 0 0 0 0-.51 3.53 3.53 0 0 0-3.14-.83.34.34 0 0 0-.25.42.36.36 0 0 0 .44.25 2.81 2.81 0 0 1 2.48.68.37.37 0 0 0 .26.08ZM293.74 225.63a.39.39 0 0 0 .28-.26 2.83 2.83 0 0 1 1.62-2 .36.36 0 0 0 .21-.46.35.35 0 0 0-.44-.22 3.52 3.52 0 0 0-2.08 2.51.34.34 0 0 0 .25.42h.16ZM310.2 215.61c-3.16 1.9-1.95 5.49 4.65 11.33 3-3.49 3.83-10.52 1.69-12.4s-3.54-.54-6.34 1.07ZM302.13 236.28a.27.27 0 0 1-.26-.22.28.28 0 0 1 .22-.31 5 5 0 0 0 4.15-3.05.25.25 0 0 1 .33-.17.26.26 0 0 1 .18.32 5.45 5.45 0 0 1-4.58 3.42Z" style="fill:#263238"/><path d="M310.7 218.08s-.36-4.06-5.57-3.82-6.94 6-6.94 6a4.45 4.45 0 0 1-.27-3.65 7.45 7.45 0 0 0-1.92 4.66s-1-.82-1.29-3.65l-1.14 3.38s-2.66-4.49 3.21-9.63 22.09-3.59 18.82 3.66ZM301.44 229.36a.66.66 0 0 1-.38-.12.69.69 0 0 1-.31-.45l-.51-2.53a.71.71 0 0 1 .56-.83l4.61-.93a.7.7 0 0 1 .83.55l.51 2.54a.71.71 0 0 1-.1.53.77.77 0 0 1-.45.3l-4.62.93h-.14Zm.09-.26Zm4-4.11-4.62.93a.21.21 0 0 0-.16.24l.52 2.54a.26.26 0 0 0 .08.13.22.22 0 0 0 .16 0l4.61-.93a.2.2 0 0 0 .13-.09.21.21 0 0 0 0-.15l-.51-2.54a.2.2 0 0 0-.19-.12ZM293.9 230.88a.7.7 0 0 1-.69-.57l-.51-2.53a.7.7 0 0 1 .55-.83l4.61-.93a.7.7 0 0 1 .83.55l.51 2.54a.7.7 0 0 1-.55.83l-4.61.92Zm.09-.26Zm4-4.12-4.61.93a.21.21 0 0 0-.16.24l.51 2.53a.2.2 0 0 0 .24.16l4.61-.92a.21.21 0 0 0 .16-.24l-.51-2.54a.2.2 0 0 0-.23-.16Z" style="fill:#263238"/><path d="M298.58 227.52a.23.23 0 0 1-.17-.07.25.25 0 0 1 0-.35 2.19 2.19 0 0 1 2.32-.48.25.25 0 0 1 .14.33.24.24 0 0 1-.32.14 1.68 1.68 0 0 0-1.77.35.25.25 0 0 1-.2.08ZM306.1 225.89a.25.25 0 0 1-.24-.2.25.25 0 0 1 .19-.3l8.72-2a.25.25 0 0 1 .3.19.25.25 0 0 1-.19.3l-8.72 2Z" style="fill:#263238"/><path d="M319.21 226.53a7.1 7.1 0 0 1-2.41 4.86c-1.88 1.62-3.87.18-4.23-2.15-.32-2.1.28-5.47 2.6-6.19s4.19 1.18 4.04 3.48Z" style="fill:#eec1bb"/><path d="M212.18 392.94s16.61-60.16 19.36-63.62C236 323.67 279 317.7 279 317.7l11.25-19.45 40.62 5.69s-3 28.57-8 35.93-70.45 6.13-74.8 7.56-20.81 48.39-20.81 48.39Z" style="fill:#263238"/><path style="isolation:isolate;opacity:.2" d="m279.04 317.7 14.67-1.65-13.1-1.06-1.57 2.71z"/><path d="m212.18 392.93 15.15 2.88s16.45-46.95 20.81-48.38 69.83-.2 74.8-7.56 8-35.93 8-35.93l-40.62-5.69L287 304l-1.86 3.21L279 317.7s-43 6-47.5 11.62c-2.71 3.45-19.32 63.61-19.32 63.61Z" style="fill:#fff;opacity:.2"/><path d="M309.51 315s-47.16-18.07-60-13.06-53.44 50.31-53.44 50.31l9.18 11.62s41.12-39.07 45.93-41.3 53.1 22 53.1 22Z" style="fill:#263238"/><path d="M309.51 315s-47.16-18.07-60-13.06-53.44 50.31-53.44 50.31l9.18 11.62s41.12-39.07 45.93-41.3 53.1 22 53.1 22Z" style="fill:#fff;opacity:.2"/><path style="fill:#eec1bb" d="m189.31 370.4-4.1-6.88 12.43-11.61 4.09 6.87-12.42 11.62z"/><path style="isolation:isolate;opacity:.2" d="m201.73 358.78-4.1-6.87-7.1 6.64 4.36 6.64 6.84-6.41z"/><path d="M184.49 362.67s-.05-.12 0-.13l-.06-.13.07.12c.09-.07 1.92-1.41 2-2.52a.93.93 0 0 0-.33-.73.7.7 0 0 0-.86-.11 2.88 2.88 0 0 0-.93 1.78 3.25 3.25 0 0 0-1.05-2 .71.71 0 0 0-.68 0 1 1 0 0 0-.62.87 2.16 2.16 0 0 0 .71 1.38 9.25 9.25 0 0 0 1.63 1.37.07.07 0 0 0 0 .06s0 0 .06 0a.14.14 0 0 0 .06.04Zm.92-3.14c.09-.06.24-.1.44.08l.07.06a.57.57 0 0 1 .14.41c0 .66-.92 1.56-1.5 2.06v-.19a3.8 3.8 0 0 1 .85-2.42Zm-3.08.37a.7.7 0 0 1 .4-.55.37.37 0 0 1 .34 0c.5.26.89 1.69 1.08 2.78-1.15-.89-1.84-1.7-1.82-2.23Z" style="fill:#407bff"/><path d="m185.59 362.45 6 6.67a.57.57 0 0 1 0 .8l-5 5.09a1.42 1.42 0 0 1-2-.09c-2.06-2.36-2.93-3.59-5.56-6.54-1.62-1.8-5-5.22-6.82-8s1-4.55 2-3.52c2.44 2.44 7.23 4.41 10 4.9a2.25 2.25 0 0 1 1.38.69Z" style="fill:#263238"/><path style="fill:#407bff" d="m203.77 367.55-11.85-13.02 4.95-5.86 12.72 14.53-5.82 4.35z"/><path style="fill:#fff;opacity:.2" d="m203.77 367.55-11.85-13.02 4.95-5.86 12.72 14.53-5.82 4.35z"/><path d="M209.34 406.37s-.1-.08-.1-.09l-.11-.09.12.08c0-.12 1-2.18.49-3.16a.89.89 0 0 0-.65-.48.69.69 0 0 0-.8.32 2.86 2.86 0 0 0 .06 2c-.59-.62-1.32-1.24-1.89-1.21a.68.68 0 0 0-.57.36 1 1 0 0 0-.12 1.06 2.19 2.19 0 0 0 1.3.86 9.9 9.9 0 0 0 2.09.4.06.06 0 0 0 .06 0h.05a.12.12 0 0 0 .07-.05Zm-.72-3.19c0-.1.15-.2.42-.14h.08a.56.56 0 0 1 .33.29 4.13 4.13 0 0 1-.3 2.52l-.12-.15a3.73 3.73 0 0 1-.41-2.52ZM206.1 405a.72.72 0 0 1 .09-.68.36.36 0 0 1 .28-.18c.56 0 1.61 1 2.3 1.9-1.44-.19-2.43-.56-2.67-1.04Z" style="fill:#407bff"/><path style="fill:#eec1bb" d="m217.32 410.76-6.93-4 5.52-16.83 6.93 4.01-5.52 16.82z"/><path style="isolation:isolate;opacity:.2" d="m222.84 393.94-6.93-4-3.16 9.62 7.06 3.65 3.03-9.27z"/><path d="m210.2 405.64 8.51 2.88a.56.56 0 0 1 .38.7l-1.86 6.88a1.42 1.42 0 0 1-1.78.89c-2.95-1.05-4.31-1.7-8-3-2.3-.79-6.91-2.11-9.88-3.68s-1.35-4.46.05-4.06c3.31.94 8.46.33 11.16-.63a2.28 2.28 0 0 1 1.42.02Z" style="fill:#263238"/><path style="fill:#407bff" d="m226.68 401.21-16.69-5.57 1.45-7.53 18.2 6.47-2.96 6.63z"/><path style="fill:#fff;opacity:.2" d="m226.68 401.21-16.69-5.57 1.45-7.53 18.2 6.47-2.96 6.63z"/><path d="M299.66 342.32s-42-21.15-49.65-24-24 6.23-26.85 28.69l3.37-3.68s3.92-12.27 5-14 21.24-4.72 21.24-4.72 31.14 15.61 46.89 17.71ZM285.11 307.2l19.15 5.86S293.09 306.78 287 304Z" style="opacity:.2"/><path style="opacity:.4" d="m318.2 303.32 12.71 1.59-.49 3.85-13.55-1.6 1.33-3.84zM316.26 302.97l-1.34 3.88-26.17-4.15 1.63-3.49 25.88 3.76z"/><path d="m302.48 302-.89 2.56a1.46 1.46 0 0 1-1.58.93l-4.49-.78a1 1 0 0 1-.79-1.34l.89-2.57a1.44 1.44 0 0 1 1.57-.92l4.49.78a1 1 0 0 1 .8 1.34Z" style="fill:#fff"/><path d="m316.09 349.63 3.22-36.84a15 15 0 0 1 14.92-13.68h55.13a6.3 6.3 0 0 1 6.28 6.85l-.79 9a6.29 6.29 0 0 1-5.48 5.7l-1.77.23a4.69 4.69 0 0 0-4.08 4.25l-4.31 49.26a7 7 0 0 1-6.93 6.35h-56.19Z" style="fill:#263238"/><path d="m316.09 349.63 3.22-36.84a15 15 0 0 1 14.92-13.68h55.13a6.3 6.3 0 0 1 6.28 6.85l-.79 9a6.29 6.29 0 0 1-5.48 5.7l-1.77.23a4.69 4.69 0 0 0-4.08 4.25l-4.31 49.26a7 7 0 0 1-6.93 6.35h-56.19Z" style="fill:#fff;isolation:isolate;opacity:.6000000000000001"/><path d="m339.45 374.38 4.31-49.26a4.69 4.69 0 0 1 4.08-4.25l1.78-.23a6.27 6.27 0 0 0 5.47-5.7l.79-9a6.3 6.3 0 0 0-6.28-6.85h39.76a6.3 6.3 0 0 1 6.28 6.85l-.79 9a6.29 6.29 0 0 1-5.48 5.7l-1.77.23a4.69 4.69 0 0 0-4.08 4.25l-4.31 49.26a7 7 0 0 1-6.93 6.35h-39.76a7 7 0 0 0 6.93-6.35Z" style="isolation:isolate;opacity:.2"/><path d="m316.09 349.63 3.22-36.84a15 15 0 0 1 14.92-13.68h15.37a6.3 6.3 0 0 1 6.28 6.85l-.79 9a6.27 6.27 0 0 1-5.47 5.7l-1.78.23a4.69 4.69 0 0 0-4.08 4.25l-4.31 49.26a7 7 0 0 1-6.93 6.35h-16.43Z" style="fill:#fff;isolation:isolate;opacity:.1"/></svg>